<svg width="25" height="13" viewBox="0 0 25 13" fill="none" xmlns="http://www.w3.org/2000/svg">
<path d="M0.352941 2.94118H0.705882V3.29412H0.352941V2.94118ZM0.705882 2.94118H1.05882V3.29412H0.705882V2.94118ZM1.05882 2.94118H1.41176V3.29412H1.05882V2.94118ZM1.41176 2.94118H1.76471V3.29412H1.41176V2.94118ZM1.41176 3.29412H1.76471V3.64706H1.41176V3.29412ZM1.41176 3.64706H1.76471V4H1.41176V3.64706ZM1.05882 3.64706H1.41176V4H1.05882V3.64706ZM0.705882 3.64706H1.05882V4H0.705882V3.64706ZM0.705882 3.29412H1.05882V3.64706H0.705882V3.29412ZM0.352941 3.29412H0.705882V3.64706H0.352941V3.29412ZM1.05882 3.29412H1.41176V3.64706H1.05882V3.29412ZM0.352941 3.64706H0.705882V4H0.352941V3.64706ZM0.352941 4H0.705882V4.35294H0.352941V4ZM0.352941 4.35294H0.705882V4.70588H0.352941V4.35294ZM0.705882 4.35294H1.05882V4.70588H0.705882V4.35294ZM1.05882 4.35294H1.41176V4.70588H1.05882V4.35294ZM1.41176 4.35294H1.76471V4.70588H1.41176V4.35294ZM1.41176 4H1.76471V4.35294H1.41176V4ZM1.05882 4H1.41176V4.35294H1.05882V4ZM0.705882 4H1.05882V4.35294H0.705882V4ZM0.352941 4.70588H0.705882V5.05882H0.352941V4.70588ZM0.705882 4.70588H1.05882V5.05882H0.705882V4.70588ZM1.05882 4.70588H1.41176V5.05882H1.05882V4.70588ZM0.352941 5.41176H0.705882V5.76471H0.352941V5.41176ZM0.352941 5.05882H0.705882V5.41176H0.352941V5.05882ZM1.05882 9.64706H1.41176V10H1.05882V9.64706ZM0.705882 9.64706H1.05882V10H0.705882V9.64706ZM0.352941 9.29412H0.705882V9.64706H0.352941V9.29412ZM0.352941 8.94118H0.705882V9.29412H0.352941V8.94118ZM0.352941 9.64706H0.705882V10H0.352941V9.64706ZM2.11765 4.70588H2.47059V5.05882H2.11765V4.70588ZM1.41176 4.70588H1.76471V5.05882H1.41176V4.70588ZM2.47059 4.70588H2.82353V5.05882H2.47059V4.70588ZM2.82353 4.70588H3.17647V5.05882H2.82353V4.70588ZM3.17647 4.70588H3.52941V5.05882H3.17647V4.70588ZM3.52941 4.70588H3.88235V5.05882H3.52941V4.70588ZM3.88235 5.05882H4.23529V5.41176H3.88235V5.05882ZM3.52941 5.05882H3.88235V5.41176H3.52941V5.05882ZM3.52941 5.41176H3.88235V5.76471H3.52941V5.41176ZM4.23529 5.05882H4.58824V5.41176H4.23529V5.05882ZM4.23529 5.41176H4.58824V5.76471H4.23529V5.41176ZM3.88235 5.41176H4.23529V5.76471H3.88235V5.41176ZM3.52941 5.76471H3.88235V6.11765H3.52941V5.76471ZM3.17647 5.76471H3.52941V6.11765H3.17647V5.76471ZM3.88235 5.76471H4.23529V6.11765H3.88235V5.76471ZM4.23529 5.76471H4.58824V6.11765H4.23529V5.76471ZM4.58824 5.76471H4.94118V6.11765H4.58824V5.76471ZM4.58824 6.11765H4.94118V6.47059H4.58824V6.11765ZM4.58824 6.47059H4.94118V6.82353H4.58824V6.47059ZM4.58824 6.82353H4.94118V7.17647H4.58824V6.82353ZM4.58824 7.17647H4.94118V7.52941H4.58824V7.17647ZM4.58824 7.52941H4.94118V7.88235H4.58824V7.52941ZM4.58824 7.88235H4.94118V8.23529H4.58824V7.88235ZM4.58824 8.23529H4.94118V8.58824H4.58824V8.23529ZM4.58824 8.58824H4.94118V8.94118H4.58824V8.58824ZM4.23529 8.58824H4.58824V8.94118H4.23529V8.58824ZM4.23529 8.94118H4.58824V9.29412H4.23529V8.94118ZM4.23529 9.29412H4.58824V9.64706H4.23529V9.29412ZM3.88235 9.29412H4.23529V9.64706H3.88235V9.29412ZM3.52941 9.29412H3.88235V9.64706H3.52941V9.29412ZM3.17647 8.94118H3.52941V9.29412H3.17647V8.94118ZM3.17647 8.58824H3.52941V8.94118H3.17647V8.58824ZM3.52941 8.58824H3.88235V8.94118H3.52941V8.58824ZM3.52941 8.94118H3.88235V9.29412H3.52941V8.94118ZM3.88235 8.94118H4.23529V9.29412H3.88235V8.94118ZM3.88235 8.58824H4.23529V8.94118H3.88235V8.58824ZM3.88235 8.23529H4.23529V8.58824H3.88235V8.23529ZM3.52941 8.23529H3.88235V8.58824H3.52941V8.23529ZM3.52941 7.88235H3.88235V8.23529H3.52941V7.88235ZM3.52941 7.52941H3.88235V7.88235H3.52941V7.52941ZM3.52941 7.17647H3.88235V7.52941H3.52941V7.17647ZM3.52941 6.82353H3.88235V7.17647H3.52941V6.82353ZM3.52941 6.47059H3.88235V6.82353H3.52941V6.47059ZM3.52941 6.11765H3.88235V6.47059H3.52941V6.11765ZM3.88235 6.11765H4.23529V6.47059H3.88235V6.11765ZM3.88235 6.47059H4.23529V6.82353H3.88235V6.47059ZM3.88235 6.82353H4.23529V7.17647H3.88235V6.82353ZM3.88235 7.17647H4.23529V7.52941H3.88235V7.17647ZM3.88235 7.52941H4.23529V7.88235H3.88235V7.52941ZM3.88235 7.88235H4.23529V8.23529H3.88235V7.88235ZM4.23529 8.23529H4.58824V8.58824H4.23529V8.23529ZM4.23529 7.88235H4.58824V8.23529H4.23529V7.88235ZM4.23529 7.52941H4.58824V7.88235H4.23529V7.52941ZM4.23529 7.17647H4.58824V7.52941H4.23529V7.17647ZM4.23529 6.82353H4.58824V7.17647H4.23529V6.82353ZM4.23529 6.47059H4.58824V6.82353H4.23529V6.47059ZM4.23529 6.11765H4.58824V6.47059H4.23529V6.11765ZM3.17647 9.29412H3.52941V9.64706H3.17647V9.29412ZM3.17647 9.64706H3.52941V10H3.17647V9.64706ZM3.52941 9.64706H3.88235V10H3.52941V9.64706ZM2.82353 9.64706H3.17647V10H2.82353V9.64706ZM2.47059 9.64706H2.82353V10H2.47059V9.64706ZM2.11765 9.64706H2.47059V10H2.11765V9.64706ZM1.76471 9.64706H2.11765V10H1.76471V9.64706ZM1.41176 9.64706H1.76471V10H1.41176V9.64706ZM1.41176 9.29412H1.76471V9.64706H1.41176V9.29412ZM1.05882 9.29412H1.41176V9.64706H1.05882V9.29412ZM0.705882 9.29412H1.05882V9.64706H0.705882V9.29412ZM0.705882 6.47059H1.05882V6.82353H0.705882V6.47059ZM0.705882 6.11765H1.05882V6.47059H0.705882V6.11765ZM0.352941 5.76471H0.705882V6.11765H0.352941V5.76471ZM0.705882 5.41176H1.05882V5.76471H0.705882V5.41176ZM1.05882 5.05882H1.41176V5.41176H1.05882V5.05882ZM1.41176 5.05882H1.76471V5.41176H1.41176V5.05882ZM1.76471 5.05882H2.11765V5.41176H1.76471V5.05882ZM1.76471 5.41176H2.11765V5.76471H1.76471V5.41176ZM1.76471 5.76471H2.11765V6.11765H1.76471V5.76471ZM1.41176 5.76471H1.76471V6.11765H1.41176V5.76471ZM1.05882 5.76471H1.41176V6.11765H1.05882V5.76471ZM1.41176 6.11765H1.76471V6.47059H1.41176V6.11765ZM1.41176 6.47059H1.76471V6.82353H1.41176V6.47059ZM1.41176 6.82353H1.76471V7.17647H1.41176V6.82353ZM1.76471 8.94118H2.11765V9.29412H1.76471V8.94118ZM2.11765 8.94118H2.47059V9.29412H2.11765V8.94118ZM2.47059 8.94118H2.82353V9.29412H2.47059V8.94118ZM2.82353 8.94118H3.17647V9.29412H2.82353V8.94118ZM2.82353 9.29412H3.17647V9.64706H2.82353V9.29412ZM2.47059 9.29412H2.82353V9.64706H2.47059V9.29412ZM2.11765 9.29412H2.47059V9.64706H2.11765V9.29412ZM1.76471 9.29412H2.11765V9.64706H1.76471V9.29412ZM1.41176 8.94118H1.76471V9.29412H1.41176V8.94118ZM1.05882 8.94118H1.41176V9.29412H1.05882V8.94118ZM1.05882 6.47059H1.41176V6.82353H1.05882V6.47059ZM1.05882 6.11765H1.41176V6.47059H1.05882V6.11765ZM1.05882 5.41176H1.41176V5.76471H1.05882V5.41176ZM1.41176 5.41176H1.76471V5.76471H1.41176V5.41176ZM2.11765 5.05882H2.47059V5.41176H2.11765V5.05882ZM2.47059 5.05882H2.82353V5.41176H2.47059V5.05882ZM2.82353 5.05882H3.17647V5.41176H2.82353V5.05882ZM3.17647 5.05882H3.52941V5.41176H3.17647V5.05882ZM3.17647 5.41176H3.52941V5.76471H3.17647V5.41176ZM2.82353 5.41176H3.17647V5.76471H2.82353V5.41176ZM2.47059 5.41176H2.82353V5.76471H2.47059V5.41176ZM2.11765 5.41176H2.47059V5.76471H2.11765V5.41176ZM0.705882 5.05882H1.05882V5.41176H0.705882V5.05882ZM0.705882 8.94118H1.05882V9.29412H0.705882V8.94118ZM0.705882 5.76471H1.05882V6.11765H0.705882V5.76471ZM0.352941 6.11765H0.705882V6.47059H0.352941V6.11765ZM0.352941 6.47059H0.705882V6.82353H0.352941V6.47059ZM0.352941 8.58824H0.705882V8.94118H0.352941V8.58824ZM0.705882 8.58824H1.05882V8.94118H0.705882V8.58824ZM1.05882 8.58824H1.41176V8.94118H1.05882V8.58824ZM1.41176 8.58824H1.76471V8.94118H1.41176V8.58824ZM1.05882 6.82353H1.41176V7.17647H1.05882V6.82353ZM0.705882 6.82353H1.05882V7.17647H0.705882V6.82353ZM0.352941 6.82353H0.705882V7.17647H0.352941V6.82353ZM0.352941 7.17647H0.705882V7.52941H0.352941V7.17647ZM0.352941 7.52941H0.705882V7.88235H0.352941V7.52941ZM0.352941 7.88235H0.705882V8.23529H0.352941V7.88235ZM0.705882 7.88235H1.05882V8.23529H0.705882V7.88235ZM0.705882 8.23529H1.05882V8.58824H0.705882V8.23529ZM1.05882 8.23529H1.41176V8.58824H1.05882V8.23529ZM0.352941 8.23529H0.705882V8.58824H0.352941V8.23529ZM1.41176 8.23529H1.76471V8.58824H1.41176V8.23529ZM1.41176 7.88235H1.76471V8.23529H1.41176V7.88235ZM1.41176 7.52941H1.76471V7.88235H1.41176V7.52941ZM1.41176 7.17647H1.76471V7.52941H1.41176V7.17647ZM1.05882 7.17647H1.41176V7.52941H1.05882V7.17647ZM0.705882 7.17647H1.05882V7.52941H0.705882V7.17647ZM0.705882 7.52941H1.05882V7.88235H0.705882V7.52941ZM1.05882 7.88235H1.41176V8.23529H1.05882V7.88235ZM1.05882 7.52941H1.41176V7.88235H1.05882V7.52941ZM6.00138 9.64706H6.35432V10H6.00138V9.64706ZM6.35432 9.64706H6.70726V10H6.35432V9.64706ZM6.70726 9.64706H7.0602V10H6.70726V9.64706ZM7.0602 9.64706H7.41314V10H7.0602V9.64706ZM7.0602 9.29412H7.41314V9.64706H7.0602V9.29412ZM6.70726 9.29412H7.0602V9.64706H6.70726V9.29412ZM6.35432 9.29412H6.70726V9.64706H6.35432V9.29412ZM6.00138 9.29412H6.35432V9.64706H6.00138V9.29412ZM6.00138 8.94118H6.35432V9.29412H6.00138V8.94118ZM6.00138 8.58824H6.35432V8.94118H6.00138V8.58824ZM6.00138 8.23529H6.35432V8.58824H6.00138V8.23529ZM6.00138 7.88235H6.35432V8.23529H6.00138V7.88235ZM6.00138 7.52941H6.35432V7.88235H6.00138V7.52941ZM6.00138 7.17647H6.35432V7.52941H6.00138V7.17647ZM6.00138 6.82353H6.35432V7.17647H6.00138V6.82353ZM6.35432 6.82353H6.70726V7.17647H6.35432V6.82353ZM6.35432 6.47059H6.70726V6.82353H6.35432V6.47059ZM6.35432 6.11765H6.70726V6.47059H6.35432V6.11765ZM6.70726 6.11765H7.0602V6.47059H6.70726V6.11765ZM6.70726 6.47059H7.0602V6.82353H6.70726V6.47059ZM7.0602 6.47059H7.41314V6.82353H7.0602V6.47059ZM7.0602 6.82353H7.41314V7.17647H7.0602V6.82353ZM7.0602 7.17647H7.41314V7.52941H7.0602V7.17647ZM7.0602 7.52941H7.41314V7.88235H7.0602V7.52941ZM7.0602 7.88235H7.41314V8.23529H7.0602V7.88235ZM7.0602 8.23529H7.41314V8.58824H7.0602V8.23529ZM7.0602 8.58824H7.41314V8.94118H7.0602V8.58824ZM7.0602 8.94118H7.41314V9.29412H7.0602V8.94118ZM6.70726 8.94118H7.0602V9.29412H6.70726V8.94118ZM6.70726 8.58824H7.0602V8.94118H6.70726V8.58824ZM6.70726 8.23529H7.0602V8.58824H6.70726V8.23529ZM6.70726 7.88235H7.0602V8.23529H6.70726V7.88235ZM6.70726 7.52941H7.0602V7.88235H6.70726V7.52941ZM6.70726 7.17647H7.0602V7.52941H6.70726V7.17647ZM6.70726 6.82353H7.0602V7.17647H6.70726V6.82353ZM6.35432 7.17647H6.70726V7.52941H6.35432V7.17647ZM6.35432 7.52941H6.70726V7.88235H6.35432V7.52941ZM6.35432 7.88235H6.70726V8.23529H6.35432V7.88235ZM6.35432 8.23529H6.70726V8.58824H6.35432V8.23529ZM6.35432 8.58824H6.70726V8.94118H6.35432V8.58824ZM6.35432 8.94118H6.70726V9.29412H6.35432V8.94118ZM6.00138 2.94118H6.35432V3.29412H6.00138V2.94118ZM6.00138 3.29412H6.35432V3.64706H6.00138V3.29412ZM6.00138 4H6.35432V4.35294H6.00138V4ZM6.00138 4.35294H6.35432V4.70588H6.00138V4.35294ZM6.00138 4.70588H6.35432V5.05882H6.00138V4.70588ZM6.00138 5.05882H6.35432V5.41176H6.00138V5.05882ZM6.00138 5.41176H6.35432V5.76471H6.00138V5.41176ZM6.00138 5.76471H6.35432V6.11765H6.00138V5.76471ZM6.00138 6.11765H6.35432V6.47059H6.00138V6.11765ZM6.00138 6.47059H6.35432V6.82353H6.00138V6.47059ZM6.35432 5.05882H6.70726V5.41176H6.35432V5.05882ZM6.35432 4.70588H6.70726V5.05882H6.35432V4.70588ZM6.35432 4.35294H6.70726V4.70588H6.35432V4.35294ZM6.35432 4H6.70726V4.35294H6.35432V4ZM6.35432 3.64706H6.70726V4H6.35432V3.64706ZM6.00138 3.64706H6.35432V4H6.00138V3.64706ZM6.35432 2.94118H6.70726V3.29412H6.35432V2.94118ZM6.70726 2.94118H7.0602V3.29412H6.70726V2.94118ZM6.70726 3.29412H7.0602V3.64706H6.70726V3.29412ZM7.0602 3.64706H7.41314V4H7.0602V3.64706ZM7.0602 3.29412H7.41314V3.64706H7.0602V3.29412ZM7.0602 2.94118H7.41314V3.29412H7.0602V2.94118ZM7.0602 4H7.41314V4.35294H7.0602V4ZM7.0602 4.35294H7.41314V4.70588H7.0602V4.35294ZM7.0602 4.70588H7.41314V5.05882H7.0602V4.70588ZM7.0602 5.05882H7.41314V5.41176H7.0602V5.05882ZM7.0602 5.41176H7.41314V5.76471H7.0602V5.41176ZM7.0602 5.76471H7.41314V6.11765H7.0602V5.76471ZM7.0602 6.11765H7.41314V6.47059H7.0602V6.11765ZM6.70726 5.76471H7.0602V6.11765H6.70726V5.76471ZM6.70726 5.41176H7.0602V5.76471H6.70726V5.41176ZM6.70726 5.05882H7.0602V5.41176H6.70726V5.05882ZM6.35432 5.41176H6.70726V5.76471H6.35432V5.41176ZM6.35432 5.76471H6.70726V6.11765H6.35432V5.76471ZM6.70726 4.70588H7.0602V5.05882H6.70726V4.70588ZM6.70726 3.64706H7.0602V4H6.70726V3.64706ZM6.70726 4H7.0602V4.35294H6.70726V4ZM6.70726 4.35294H7.0602V4.70588H6.70726V4.35294ZM6.35432 3.29412H6.70726V3.64706H6.35432V3.29412ZM8.47403 2.94118H8.82698V3.29412H8.47403V2.94118ZM8.82698 2.94118H9.17992V3.29412H8.82698V2.94118ZM9.17992 2.94118H9.53286V3.29412H9.17992V2.94118ZM9.53286 2.94118H9.8858V3.29412H9.53286V2.94118ZM9.8858 2.94118H10.2387V3.29412H9.8858V2.94118ZM9.8858 3.29412H10.2387V3.64706H9.8858V3.29412ZM9.8858 3.64706H10.2387V4H9.8858V3.64706ZM9.8858 4H10.2387V4.35294H9.8858V4ZM10.2387 3.64706H10.5917V4H10.2387V3.64706ZM10.2387 4H10.5917V4.35294H10.2387V4ZM10.2387 4.35294H10.5917V4.70588H10.2387V4.35294ZM10.2387 4.70588H10.5917V5.05882H10.2387V4.70588ZM10.2387 5.05882H10.5917V5.41176H10.2387V5.05882ZM10.2387 5.41176H10.5917V5.76471H10.2387V5.41176ZM10.2387 5.76471H10.5917V6.11765H10.2387V5.76471ZM9.8858 5.76471H10.2387V6.11765H9.8858V5.76471ZM9.8858 5.41176H10.2387V5.76471H9.8858V5.41176ZM9.8858 5.05882H10.2387V5.41176H9.8858V5.05882ZM9.8858 4.70588H10.2387V5.05882H9.8858V4.70588ZM9.8858 4.35294H10.2387V4.70588H9.8858V4.35294ZM8.47403 9.64706H8.82698V10H8.47403V9.64706ZM8.82698 9.64706H9.17992V10H8.82698V9.64706ZM9.17992 9.64706H9.53286V10H9.17992V9.64706ZM9.53286 9.29412H9.8858V9.64706H9.53286V9.29412ZM9.53286 8.94118H9.8858V9.29412H9.53286V8.94118ZM9.53286 8.58824H9.8858V8.94118H9.53286V8.58824ZM9.17992 8.58824H9.53286V8.94118H9.17992V8.58824ZM9.17992 8.94118H9.53286V9.29412H9.17992V8.94118ZM9.53286 9.64706H9.8858V10H9.53286V9.64706ZM9.17992 9.29412H9.53286V9.64706H9.17992V9.29412ZM8.82698 9.29412H9.17992V9.64706H8.82698V9.29412ZM8.47403 9.29412H8.82698V9.64706H8.47403V9.29412ZM8.47403 8.94118H8.82698V9.29412H8.47403V8.94118ZM8.47403 8.58824H8.82698V8.94118H8.47403V8.58824ZM8.82698 8.58824H9.17992V8.94118H8.82698V8.58824ZM8.82698 8.94118H9.17992V9.29412H8.82698V8.94118ZM8.82698 8.23529H9.17992V8.58824H8.82698V8.23529ZM8.47403 8.23529H8.82698V8.58824H8.47403V8.23529ZM8.47403 7.88235H8.82698V8.23529H8.47403V7.88235ZM8.47403 7.52941H8.82698V7.88235H8.47403V7.52941ZM8.47403 7.17647H8.82698V7.52941H8.47403V7.17647ZM8.47403 6.82353H8.82698V7.17647H8.47403V6.82353ZM8.47403 6.47059H8.82698V6.82353H8.47403V6.47059ZM8.82698 6.82353H9.17992V7.17647H8.82698V6.82353ZM8.82698 6.47059H9.17992V6.82353H8.82698V6.47059ZM9.17992 6.47059H9.53286V6.82353H9.17992V6.47059ZM9.17992 6.82353H9.53286V7.17647H9.17992V6.82353ZM9.17992 7.17647H9.53286V7.52941H9.17992V7.17647ZM9.53286 7.17647H9.8858V7.52941H9.53286V7.17647ZM9.53286 7.52941H9.8858V7.88235H9.53286V7.52941ZM9.53286 7.88235H9.8858V8.23529H9.53286V7.88235ZM9.53286 8.23529H9.8858V8.58824H9.53286V8.23529ZM9.53286 6.82353H9.8858V7.17647H9.53286V6.82353ZM9.53286 6.47059H9.8858V6.82353H9.53286V6.47059ZM8.82698 7.17647H9.17992V7.52941H8.82698V7.17647ZM8.82698 7.52941H9.17992V7.88235H8.82698V7.52941ZM8.82698 7.88235H9.17992V8.23529H8.82698V7.88235ZM9.17992 8.23529H9.53286V8.58824H9.17992V8.23529ZM9.17992 7.88235H9.53286V8.23529H9.17992V7.88235ZM9.17992 7.52941H9.53286V7.88235H9.17992V7.52941ZM9.53286 6.11765H9.8858V6.47059H9.53286V6.11765ZM9.17992 6.11765H9.53286V6.47059H9.17992V6.11765ZM8.82698 6.11765H9.17992V6.47059H8.82698V6.11765ZM8.47403 6.11765H8.82698V6.47059H8.47403V6.11765ZM8.47403 5.76471H8.82698V6.11765H8.47403V5.76471ZM8.82698 5.76471H9.17992V6.11765H8.82698V5.76471ZM9.17992 5.76471H9.53286V6.11765H9.17992V5.76471ZM9.53286 5.76471H9.8858V6.11765H9.53286V5.76471ZM9.53286 5.41176H9.8858V5.76471H9.53286V5.41176ZM9.53286 5.05882H9.8858V5.41176H9.53286V5.05882ZM9.17992 5.05882H9.53286V5.41176H9.17992V5.05882ZM8.82698 5.05882H9.17992V5.41176H8.82698V5.05882ZM8.82698 5.41176H9.17992V5.76471H8.82698V5.41176ZM9.17992 5.41176H9.53286V5.76471H9.17992V5.41176ZM8.47403 5.41176H8.82698V5.76471H8.47403V5.41176ZM10.2387 6.47059H10.5917V6.82353H10.2387V6.47059ZM10.2387 6.11765H10.5917V6.47059H10.2387V6.11765ZM10.5917 4.35294H10.9446V4.70588H10.5917V4.35294ZM10.5917 4.70588H10.9446V5.05882H10.5917V4.70588ZM10.5917 5.05882H10.9446V5.41176H10.5917V5.05882ZM10.5917 5.41176H10.9446V5.76471H10.5917V5.41176ZM10.5917 5.76471H10.9446V6.11765H10.5917V5.76471ZM10.5917 6.11765H10.9446V6.47059H10.5917V6.11765ZM10.5917 6.47059H10.9446V6.82353H10.5917V6.47059ZM10.5917 6.82353H10.9446V7.17647H10.5917V6.82353ZM10.5917 7.17647H10.9446V7.52941H10.5917V7.17647ZM10.9446 7.17647H11.2976V7.52941H10.9446V7.17647ZM10.9446 6.82353H11.2976V7.17647H10.9446V6.82353ZM10.9446 6.47059H11.2976V6.82353H10.9446V6.47059ZM10.9446 6.11765H11.2976V6.47059H10.9446V6.11765ZM10.9446 5.76471H11.2976V6.11765H10.9446V5.76471ZM10.9446 5.41176H11.2976V5.76471H10.9446V5.41176ZM10.9446 5.05882H11.2976V5.41176H10.9446V5.05882ZM10.9446 7.52941H11.2976V7.88235H10.9446V7.52941ZM10.9446 7.88235H11.2976V8.23529H10.9446V7.88235ZM11.2976 7.88235H11.6505V8.23529H11.2976V7.88235ZM11.2976 7.52941H11.6505V7.88235H11.2976V7.52941ZM11.2976 7.17647H11.6505V7.52941H11.2976V7.17647ZM11.2976 6.82353H11.6505V7.17647H11.2976V6.82353ZM11.2976 6.47059H11.6505V6.82353H11.2976V6.47059ZM11.2976 6.11765H11.6505V6.47059H11.2976V6.11765ZM11.2976 5.76471H11.6505V6.11765H11.2976V5.76471ZM11.2976 8.23529H11.6505V8.58824H11.2976V8.23529ZM11.2976 8.58824H11.6505V8.94118H11.2976V8.58824ZM11.6505 8.58824H12.0034V8.94118H11.6505V8.58824ZM11.6505 8.23529H12.0034V8.58824H11.6505V8.23529ZM11.6505 7.88235H12.0034V8.23529H11.6505V7.88235ZM11.6505 7.52941H12.0034V7.88235H11.6505V7.52941ZM11.6505 7.17647H12.0034V7.52941H11.6505V7.17647ZM11.6505 6.82353H12.0034V7.17647H11.6505V6.82353ZM11.6505 6.47059H12.0034V6.82353H11.6505V6.47059ZM11.6505 8.94118H12.0034V9.29412H11.6505V8.94118ZM11.6505 9.29412H12.0034V9.64706H11.6505V9.29412ZM12.0034 9.29412H12.3564V9.64706H12.0034V9.29412ZM12.0034 8.94118H12.3564V9.29412H12.0034V8.94118ZM12.0034 8.58824H12.3564V8.94118H12.0034V8.58824ZM12.0034 8.23529H12.3564V8.58824H12.0034V8.23529ZM12.0034 7.88235H12.3564V8.23529H12.0034V7.88235ZM12.0034 7.52941H12.3564V7.88235H12.0034V7.52941ZM12.0034 7.17647H12.3564V7.52941H12.0034V7.17647ZM12.0034 9.64706H12.3564V10H12.0034V9.64706ZM8.47403 3.29412H8.82698V3.64706H8.47403V3.29412ZM8.47403 3.64706H8.82698V4H8.47403V3.64706ZM8.47403 4H8.82698V4.35294H8.47403V4ZM8.47403 4.35294H8.82698V4.70588H8.47403V4.35294ZM8.47403 4.70588H8.82698V5.05882H8.47403V4.70588ZM8.47403 5.05882H8.82698V5.41176H8.47403V5.05882ZM9.17992 4.70588H9.53286V5.05882H9.17992V4.70588ZM9.53286 4.70588H9.8858V5.05882H9.53286V4.70588ZM9.53286 4.35294H9.8858V4.70588H9.53286V4.35294ZM9.53286 4H9.8858V4.35294H9.53286V4ZM9.53286 3.64706H9.8858V4H9.53286V3.64706ZM9.17992 3.64706H9.53286V4H9.17992V3.64706ZM9.17992 3.29412H9.53286V3.64706H9.17992V3.29412ZM8.82698 3.29412H9.17992V3.64706H8.82698V3.29412ZM8.82698 3.64706H9.17992V4H8.82698V3.64706ZM8.82698 4H9.17992V4.35294H8.82698V4ZM8.82698 4.35294H9.17992V4.70588H8.82698V4.35294ZM8.82698 4.70588H9.17992V5.05882H8.82698V4.70588ZM9.17992 4.35294H9.53286V4.70588H9.17992V4.35294ZM9.17992 4H9.53286V4.35294H9.17992V4ZM9.53286 3.29412H9.8858V3.64706H9.53286V3.29412ZM12.3564 2.94118H12.7093V3.29412H12.3564V2.94118ZM12.7093 2.94118H13.0623V3.29412H12.7093V2.94118ZM13.0623 2.94118H13.4152V3.29412H13.0623V2.94118ZM13.4152 2.94118H13.7682V3.29412H13.4152V2.94118ZM12.7093 3.29412H13.0623V3.64706H12.7093V3.29412ZM12.3564 3.29412H12.7093V3.64706H12.3564V3.29412ZM12.3564 3.64706H12.7093V4H12.3564V3.64706ZM12.3564 4H12.7093V4.35294H12.3564V4ZM12.3564 4.35294H12.7093V4.70588H12.3564V4.35294ZM12.3564 4.70588H12.7093V5.05882H12.3564V4.70588ZM12.3564 5.05882H12.7093V5.41176H12.3564V5.05882ZM12.7093 5.05882H13.0623V5.41176H12.7093V5.05882ZM12.7093 5.41176H13.0623V5.76471H12.7093V5.41176ZM12.7093 5.76471H13.0623V6.11765H12.7093V5.76471ZM12.7093 6.11765H13.0623V6.47059H12.7093V6.11765ZM12.7093 6.47059H13.0623V6.82353H12.7093V6.47059ZM12.7093 6.82353H13.0623V7.17647H12.7093V6.82353ZM12.7093 7.17647H13.0623V7.52941H12.7093V7.17647ZM12.3564 6.11765H12.7093V6.47059H12.3564V6.11765ZM12.3564 5.76471H12.7093V6.11765H12.3564V5.76471ZM12.3564 5.41176H12.7093V5.76471H12.3564V5.41176ZM12.3564 6.47059H12.7093V6.82353H12.3564V6.47059ZM12.3564 6.82353H12.7093V7.17647H12.3564V6.82353ZM12.3564 7.17647H12.7093V7.52941H12.3564V7.17647ZM12.3564 7.52941H12.7093V7.88235H12.3564V7.52941ZM12.3564 7.88235H12.7093V8.23529H12.3564V7.88235ZM12.3564 8.23529H12.7093V8.58824H12.3564V8.23529ZM12.3564 8.58824H12.7093V8.94118H12.3564V8.58824ZM12.3564 8.94118H12.7093V9.29412H12.3564V8.94118ZM12.3564 9.29412H12.7093V9.64706H12.3564V9.29412ZM12.3564 9.64706H12.7093V10H12.3564V9.64706ZM12.7093 9.64706H13.0623V10H12.7093V9.64706ZM13.0623 9.64706H13.4152V10H13.0623V9.64706ZM13.4152 9.64706H13.7682V10H13.4152V9.64706ZM13.4152 9.29412H13.7682V9.64706H13.4152V9.29412ZM13.4152 8.94118H13.7682V9.29412H13.4152V8.94118ZM13.0623 8.94118H13.4152V9.29412H13.0623V8.94118ZM13.0623 8.58824H13.4152V8.94118H13.0623V8.58824ZM13.0623 8.23529H13.4152V8.58824H13.0623V8.23529ZM12.7093 7.88235H13.0623V8.23529H12.7093V7.88235ZM12.7093 8.23529H13.0623V8.58824H12.7093V8.23529ZM12.7093 8.58824H13.0623V8.94118H12.7093V8.58824ZM12.7093 8.94118H13.0623V9.29412H12.7093V8.94118ZM12.7093 9.29412H13.0623V9.64706H12.7093V9.29412ZM13.0623 9.29412H13.4152V9.64706H13.0623V9.29412ZM13.4152 8.58824H13.7682V8.94118H13.4152V8.58824ZM13.0623 7.88235H13.4152V8.23529H13.0623V7.88235ZM12.7093 7.52941H13.0623V7.88235H12.7093V7.52941ZM13.4152 3.29412H13.7682V3.64706H13.4152V3.29412ZM13.4152 3.64706H13.7682V4H13.4152V3.64706ZM13.4152 4H13.7682V4.35294H13.4152V4ZM13.4152 4.35294H13.7682V4.70588H13.4152V4.35294ZM13.4152 4.70588H13.7682V5.05882H13.4152V4.70588ZM13.4152 5.05882H13.7682V5.41176H13.4152V5.05882ZM13.4152 5.41176H13.7682V5.76471H13.4152V5.41176ZM13.4152 5.76471H13.7682V6.11765H13.4152V5.76471ZM13.4152 6.11765H13.7682V6.47059H13.4152V6.11765ZM13.4152 6.47059H13.7682V6.82353H13.4152V6.47059ZM13.4152 6.82353H13.7682V7.17647H13.4152V6.82353ZM13.4152 7.17647H13.7682V7.52941H13.4152V7.17647ZM13.4152 7.52941H13.7682V7.88235H13.4152V7.52941ZM13.4152 7.88235H13.7682V8.23529H13.4152V7.88235ZM13.4152 8.23529H13.7682V8.58824H13.4152V8.23529ZM13.0623 7.52941H13.4152V7.88235H13.0623V7.52941ZM13.0623 7.17647H13.4152V7.52941H13.0623V7.17647ZM13.0623 6.82353H13.4152V7.17647H13.0623V6.82353ZM13.0623 6.47059H13.4152V6.82353H13.0623V6.47059ZM13.0623 6.11765H13.4152V6.47059H13.0623V6.11765ZM13.0623 5.76471H13.4152V6.11765H13.0623V5.76471ZM13.0623 5.41176H13.4152V5.76471H13.0623V5.41176ZM13.0623 5.05882H13.4152V5.41176H13.0623V5.05882ZM13.0623 4.70588H13.4152V5.05882H13.0623V4.70588ZM13.0623 4.35294H13.4152V4.70588H13.0623V4.35294ZM13.0623 4H13.4152V4.35294H13.0623V4ZM13.0623 3.64706H13.4152V4H13.0623V3.64706ZM13.0623 3.29412H13.4152V3.64706H13.0623V3.29412ZM12.7093 3.64706H13.0623V4H12.7093V3.64706ZM12.7093 4H13.0623V4.35294H12.7093V4ZM12.7093 4.35294H13.0623V4.70588H12.7093V4.35294ZM12.7093 4.70588H13.0623V5.05882H12.7093V4.70588ZM19.0609 8.58824H19.4138V8.94118H19.0609V8.58824ZM18.708 8.58824H19.0609V8.94118H18.708V8.58824ZM18.355 8.58824H18.708V8.94118H18.355V8.58824ZM18.355 8.94118H18.708V9.29412H18.355V8.94118ZM18.708 8.94118H19.0609V9.29412H18.708V8.94118ZM18.355 9.29412H18.708V9.64706H18.355V9.29412ZM18.0021 9.29412H18.355V9.64706H18.0021V9.29412ZM18.708 9.29412H19.0609V9.64706H18.708V9.29412ZM18.0021 9.64706H18.355V10H18.0021V9.64706ZM17.6491 9.64706H18.0021V10H17.6491V9.64706ZM17.2962 9.64706H17.6491V10H17.2962V9.64706ZM16.9432 9.64706H17.2962V10H16.9432V9.64706ZM16.5903 9.64706H16.9432V10H16.5903V9.64706ZM16.2374 9.64706H16.5903V10H16.2374V9.64706ZM15.8844 9.64706H16.2374V10H15.8844V9.64706ZM15.8844 9.29412H16.2374V9.64706H15.8844V9.29412ZM15.5315 9.29412H15.8844V9.64706H15.5315V9.29412ZM15.1785 9.29412H15.5315V9.64706H15.1785V9.29412ZM15.1785 8.94118H15.5315V9.29412H15.1785V8.94118ZM15.5315 8.94118H15.8844V9.29412H15.5315V8.94118ZM15.8844 8.94118H16.2374V9.29412H15.8844V8.94118ZM16.2374 8.94118H16.5903V9.29412H16.2374V8.94118ZM16.5903 8.94118H16.9432V9.29412H16.5903V8.94118ZM16.9432 8.94118H17.2962V9.29412H16.9432V8.94118ZM17.2962 8.94118H17.6491V9.29412H17.2962V8.94118ZM17.6491 8.94118H18.0021V9.29412H17.6491V8.94118ZM18.0021 8.94118H18.355V9.29412H18.0021V8.94118ZM17.6491 9.29412H18.0021V9.64706H17.6491V9.29412ZM17.2962 9.29412H17.6491V9.64706H17.2962V9.29412ZM16.9432 9.29412H17.2962V9.64706H16.9432V9.29412ZM16.5903 9.29412H16.9432V9.64706H16.5903V9.29412ZM16.2374 9.29412H16.5903V9.64706H16.2374V9.29412ZM15.5315 8.58824H15.8844V8.94118H15.5315V8.58824ZM15.1785 8.58824H15.5315V8.94118H15.1785V8.58824ZM14.8256 8.58824H15.1785V8.94118H14.8256V8.58824ZM15.5315 8.23529H15.8844V8.58824H15.5315V8.23529ZM15.8844 8.23529H16.2374V8.58824H15.8844V8.23529ZM16.2374 8.23529H16.5903V8.58824H16.2374V8.23529ZM16.2374 8.58824H16.5903V8.94118H16.2374V8.58824ZM15.8844 8.58824H16.2374V8.94118H15.8844V8.58824ZM15.1785 8.23529H15.5315V8.58824H15.1785V8.23529ZM15.1785 7.88235H15.5315V8.23529H15.1785V7.88235ZM14.8256 7.88235H15.1785V8.23529H14.8256V7.88235ZM14.8256 7.52941H15.1785V7.88235H14.8256V7.52941ZM14.8256 8.23529H15.1785V8.58824H14.8256V8.23529ZM14.8256 7.17647H15.1785V7.52941H14.8256V7.17647ZM15.1785 7.17647H15.5315V7.52941H15.1785V7.17647ZM15.5315 7.17647H15.8844V7.52941H15.5315V7.17647ZM15.8844 7.17647H16.2374V7.52941H15.8844V7.17647ZM15.8844 7.52941H16.2374V7.88235H15.8844V7.52941ZM15.8844 7.88235H16.2374V8.23529H15.8844V7.88235ZM15.5315 7.52941H15.8844V7.88235H15.5315V7.52941ZM15.1785 7.52941H15.5315V7.88235H15.1785V7.52941ZM15.5315 7.88235H15.8844V8.23529H15.5315V7.88235ZM16.5903 8.58824H16.9432V8.94118H16.5903V8.58824ZM16.9432 8.58824H17.2962V8.94118H16.9432V8.58824ZM17.2962 8.58824H17.6491V8.94118H17.2962V8.58824ZM17.6491 8.58824H18.0021V8.94118H17.6491V8.58824ZM18.0021 8.58824H18.355V8.94118H18.0021V8.58824ZM18.0021 8.23529H18.355V8.58824H18.0021V8.23529ZM17.6491 8.23529H18.0021V8.58824H17.6491V8.23529ZM18.355 8.23529H18.708V8.58824H18.355V8.23529ZM18.708 8.23529H19.0609V8.58824H18.708V8.23529ZM18.708 7.88235H19.0609V8.23529H18.708V7.88235ZM19.0609 7.88235H19.4138V8.23529H19.0609V7.88235ZM19.0609 7.52941H19.4138V7.88235H19.0609V7.52941ZM19.0609 8.23529H19.4138V8.58824H19.0609V8.23529ZM19.0609 7.17647H19.4138V7.52941H19.0609V7.17647ZM19.0609 6.82353H19.4138V7.17647H19.0609V6.82353ZM19.0609 6.47059H19.4138V6.82353H19.0609V6.47059ZM19.0609 6.11765H19.4138V6.47059H19.0609V6.11765ZM18.0021 6.11765H18.355V6.47059H18.0021V6.11765ZM18.0021 6.47059H18.355V6.82353H18.0021V6.47059ZM18.0021 6.82353H18.355V7.17647H18.0021V6.82353ZM18.0021 7.17647H18.355V7.52941H18.0021V7.17647ZM18.0021 7.52941H18.355V7.88235H18.0021V7.52941ZM18.0021 7.88235H18.355V8.23529H18.0021V7.88235ZM18.355 7.88235H18.708V8.23529H18.355V7.88235ZM18.355 7.52941H18.708V7.88235H18.355V7.52941ZM18.708 7.52941H19.0609V7.88235H18.708V7.52941ZM18.708 7.17647H19.0609V7.52941H18.708V7.17647ZM18.708 6.82353H19.0609V7.17647H18.708V6.82353ZM18.708 6.47059H19.0609V6.82353H18.708V6.47059ZM18.355 6.11765H18.708V6.47059H18.355V6.11765ZM18.355 6.47059H18.708V6.82353H18.355V6.47059ZM18.355 6.82353H18.708V7.17647H18.355V6.82353ZM18.355 7.17647H18.708V7.52941H18.355V7.17647ZM18.708 6.11765H19.0609V6.47059H18.708V6.11765ZM19.0609 5.05882H19.4138V5.41176H19.0609V5.05882ZM19.0609 4.70588H19.4138V5.05882H19.0609V4.70588ZM19.0609 4.35294H19.4138V4.70588H19.0609V4.35294ZM19.0609 4H19.4138V4.35294H19.0609V4ZM18.708 4H19.0609V4.35294H18.708V4ZM18.708 3.64706H19.0609V4H18.708V3.64706ZM18.708 3.29412H19.0609V3.64706H18.708V3.29412ZM18.355 3.29412H18.708V3.64706H18.355V3.29412ZM18.0021 3.29412H18.355V3.64706H18.0021V3.29412ZM18.355 5.05882H18.708V5.41176H18.355V5.05882ZM18.355 4.70588H18.708V5.05882H18.355V4.70588ZM18.708 4.70588H19.0609V5.05882H18.708V4.70588ZM18.708 4.35294H19.0609V4.70588H18.708V4.35294ZM18.708 5.05882H19.0609V5.41176H18.708V5.05882ZM18.0021 5.05882H18.355V5.41176H18.0021V5.05882ZM18.355 4.35294H18.708V4.70588H18.355V4.35294ZM18.0021 4.35294H18.355V4.70588H18.0021V4.35294ZM18.0021 4.70588H18.355V5.05882H18.0021V4.70588ZM17.6491 4.35294H18.0021V4.70588H17.6491V4.35294ZM17.6491 4H18.0021V4.35294H17.6491V4ZM18.0021 3.64706H18.355V4H18.0021V3.64706ZM18.355 3.64706H18.708V4H18.355V3.64706ZM18.355 4H18.708V4.35294H18.355V4ZM18.0021 4H18.355V4.35294H18.0021V4ZM17.6491 3.64706H18.0021V4H17.6491V3.64706ZM17.6491 3.29412H18.0021V3.64706H17.6491V3.29412ZM17.6491 2.94118H18.0021V3.29412H17.6491V2.94118ZM18.0021 2.94118H18.355V3.29412H18.0021V2.94118ZM17.2962 2.94118H17.6491V3.29412H17.2962V2.94118ZM16.9432 2.94118H17.2962V3.29412H16.9432V2.94118ZM16.5903 2.94118H16.9432V3.29412H16.5903V2.94118ZM16.2374 2.94118H16.5903V3.29412H16.2374V2.94118ZM16.2374 3.29412H16.5903V3.64706H16.2374V3.29412ZM15.8844 3.29412H16.2374V3.64706H15.8844V3.29412ZM15.8844 2.94118H16.2374V3.29412H15.8844V2.94118ZM15.5315 3.29412H15.8844V3.64706H15.5315V3.29412ZM15.1785 3.29412H15.5315V3.64706H15.1785V3.29412ZM15.1785 3.64706H15.5315V4H15.1785V3.64706ZM15.1785 4H15.5315V4.35294H15.1785V4ZM14.8256 4H15.1785V4.35294H14.8256V4ZM14.8256 4.35294H15.1785V4.70588H14.8256V4.35294ZM15.1785 4.35294H15.5315V4.70588H15.1785V4.35294ZM15.5315 4.35294H15.8844V4.70588H15.5315V4.35294ZM15.8844 4.35294H16.2374V4.70588H15.8844V4.35294ZM16.2374 4.35294H16.5903V4.70588H16.2374V4.35294ZM16.2374 4H16.5903V4.35294H16.2374V4ZM16.5903 4H16.9432V4.35294H16.5903V4ZM16.9432 4H17.2962V4.35294H16.9432V4ZM17.2962 4H17.6491V4.35294H17.2962V4ZM17.2962 3.29412H17.6491V3.64706H17.2962V3.29412ZM17.2962 3.64706H17.6491V4H17.2962V3.64706ZM16.9432 3.64706H17.2962V4H16.9432V3.64706ZM16.5903 3.64706H16.9432V4H16.5903V3.64706ZM16.9432 3.29412H17.2962V3.64706H16.9432V3.29412ZM16.5903 3.29412H16.9432V3.64706H16.5903V3.29412ZM16.2374 3.64706H16.5903V4H16.2374V3.64706ZM15.8844 3.64706H16.2374V4H15.8844V3.64706ZM15.8844 4H16.2374V4.35294H15.8844V4ZM15.5315 4H15.8844V4.35294H15.5315V4ZM15.5315 3.64706H15.8844V4H15.5315V3.64706ZM15.5315 4.70588H15.8844V5.05882H15.5315V4.70588ZM15.5315 5.05882H15.8844V5.41176H15.5315V5.05882ZM15.5315 5.41176H15.8844V5.76471H15.5315V5.41176ZM15.5315 5.76471H15.8844V6.11765H15.5315V5.76471ZM15.8844 5.76471H16.2374V6.11765H15.8844V5.76471ZM15.8844 6.11765H16.2374V6.47059H15.8844V6.11765ZM15.8844 5.41176H16.2374V5.76471H15.8844V5.41176ZM15.8844 5.05882H16.2374V5.41176H15.8844V5.05882ZM15.8844 4.70588H16.2374V5.05882H15.8844V4.70588ZM15.8844 6.47059H16.2374V6.82353H15.8844V6.47059ZM15.8844 6.82353H16.2374V7.17647H15.8844V6.82353ZM15.5315 6.82353H15.8844V7.17647H15.5315V6.82353ZM15.1785 6.82353H15.5315V7.17647H15.1785V6.82353ZM14.8256 6.47059H15.1785V6.82353H14.8256V6.47059ZM14.8256 6.82353H15.1785V7.17647H14.8256V6.82353ZM14.8256 6.11765H15.1785V6.47059H14.8256V6.11765ZM14.8256 5.76471H15.1785V6.11765H14.8256V5.76471ZM14.8256 5.41176H15.1785V5.76471H14.8256V5.41176ZM14.8256 5.05882H15.1785V5.41176H14.8256V5.05882ZM14.8256 4.70588H15.1785V5.05882H14.8256V4.70588ZM15.1785 5.05882H15.5315V5.41176H15.1785V5.05882ZM15.1785 5.41176H15.5315V5.76471H15.1785V5.41176ZM15.1785 5.76471H15.5315V6.11765H15.1785V5.76471ZM15.1785 6.11765H15.5315V6.47059H15.1785V6.11765ZM15.1785 6.47059H15.5315V6.82353H15.1785V6.47059ZM15.5315 6.47059H15.8844V6.82353H15.5315V6.47059ZM15.5315 6.11765H15.8844V6.47059H15.5315V6.11765ZM15.1785 4.70588H15.5315V5.05882H15.1785V4.70588ZM17.6491 6.11765H18.0021V6.47059H17.6491V6.11765ZM17.2962 6.11765H17.6491V6.47059H17.2962V6.11765ZM16.9432 6.11765H17.2962V6.47059H16.9432V6.11765ZM16.9432 6.47059H17.2962V6.82353H16.9432V6.47059ZM16.9432 6.82353H17.2962V7.17647H16.9432V6.82353ZM16.9432 7.17647H17.2962V7.52941H16.9432V7.17647ZM17.2962 7.17647H17.6491V7.52941H17.2962V7.17647ZM17.6491 7.17647H18.0021V7.52941H17.6491V7.17647ZM17.6491 6.82353H18.0021V7.17647H17.6491V6.82353ZM17.2962 6.82353H17.6491V7.17647H17.2962V6.82353ZM17.2962 6.47059H17.6491V6.82353H17.2962V6.47059ZM17.6491 6.47059H18.0021V6.82353H17.6491V6.47059ZM20.474 9.64706H20.827V10H20.474V9.64706ZM20.827 9.64706H21.1799V10H20.827V9.64706ZM21.1799 9.64706H21.5329V10H21.1799V9.64706ZM21.5329 9.64706H21.8858V10H21.5329V9.64706ZM21.5329 9.29412H21.8858V9.64706H21.5329V9.29412ZM21.1799 9.29412H21.5329V9.64706H21.1799V9.29412ZM20.827 9.29412H21.1799V9.64706H20.827V9.29412ZM20.474 9.29412H20.827V9.64706H20.474V9.29412ZM20.474 8.94118H20.827V9.29412H20.474V8.94118ZM20.474 8.58824H20.827V8.94118H20.474V8.58824ZM20.474 8.23529H20.827V8.58824H20.474V8.23529ZM20.474 7.88235H20.827V8.23529H20.474V7.88235ZM20.474 7.52941H20.827V7.88235H20.474V7.52941ZM20.474 7.17647H20.827V7.52941H20.474V7.17647ZM20.474 6.82353H20.827V7.17647H20.474V6.82353ZM20.827 6.82353H21.1799V7.17647H20.827V6.82353ZM20.827 6.47059H21.1799V6.82353H20.827V6.47059ZM20.827 6.11765H21.1799V6.47059H20.827V6.11765ZM21.1799 6.11765H21.5329V6.47059H21.1799V6.11765ZM21.1799 6.47059H21.5329V6.82353H21.1799V6.47059ZM21.5329 6.47059H21.8858V6.82353H21.5329V6.47059ZM21.5329 6.82353H21.8858V7.17647H21.5329V6.82353ZM21.5329 7.17647H21.8858V7.52941H21.5329V7.17647ZM21.5329 7.52941H21.8858V7.88235H21.5329V7.52941ZM21.5329 7.88235H21.8858V8.23529H21.5329V7.88235ZM21.5329 8.23529H21.8858V8.58824H21.5329V8.23529ZM21.5329 8.58824H21.8858V8.94118H21.5329V8.58824ZM21.5329 8.94118H21.8858V9.29412H21.5329V8.94118ZM21.1799 8.94118H21.5329V9.29412H21.1799V8.94118ZM21.1799 8.58824H21.5329V8.94118H21.1799V8.58824ZM21.1799 8.23529H21.5329V8.58824H21.1799V8.23529ZM21.1799 7.88235H21.5329V8.23529H21.1799V7.88235ZM21.1799 7.52941H21.5329V7.88235H21.1799V7.52941ZM21.1799 7.17647H21.5329V7.52941H21.1799V7.17647ZM21.1799 6.82353H21.5329V7.17647H21.1799V6.82353ZM20.827 7.17647H21.1799V7.52941H20.827V7.17647ZM20.827 7.52941H21.1799V7.88235H20.827V7.52941ZM20.827 7.88235H21.1799V8.23529H20.827V7.88235ZM20.827 8.23529H21.1799V8.58824H20.827V8.23529ZM20.827 8.58824H21.1799V8.94118H20.827V8.58824ZM20.827 8.94118H21.1799V9.29412H20.827V8.94118ZM20.474 2.94118H20.827V3.29412H20.474V2.94118ZM20.474 3.29412H20.827V3.64706H20.474V3.29412ZM20.474 4H20.827V4.35294H20.474V4ZM20.474 4.35294H20.827V4.70588H20.474V4.35294ZM20.474 4.70588H20.827V5.05882H20.474V4.70588ZM20.474 5.05882H20.827V5.41176H20.474V5.05882ZM20.474 5.41176H20.827V5.76471H20.474V5.41176ZM20.474 5.76471H20.827V6.11765H20.474V5.76471ZM20.474 6.11765H20.827V6.47059H20.474V6.11765ZM20.474 6.47059H20.827V6.82353H20.474V6.47059ZM20.827 5.05882H21.1799V5.41176H20.827V5.05882ZM20.827 4.70588H21.1799V5.05882H20.827V4.70588ZM20.827 4.35294H21.1799V4.70588H20.827V4.35294ZM20.827 4H21.1799V4.35294H20.827V4ZM20.827 3.64706H21.1799V4H20.827V3.64706ZM20.474 3.64706H20.827V4H20.474V3.64706ZM20.827 2.94118H21.1799V3.29412H20.827V2.94118ZM21.1799 2.94118H21.5329V3.29412H21.1799V2.94118ZM21.1799 3.29412H21.5329V3.64706H21.1799V3.29412ZM21.5329 3.64706H21.8858V4H21.5329V3.64706ZM21.5329 3.29412H21.8858V3.64706H21.5329V3.29412ZM21.5329 2.94118H21.8858V3.29412H21.5329V2.94118ZM21.5329 4H21.8858V4.35294H21.5329V4ZM21.5329 4.35294H21.8858V4.70588H21.5329V4.35294ZM21.5329 4.70588H21.8858V5.05882H21.5329V4.70588ZM21.5329 5.05882H21.8858V5.41176H21.5329V5.05882ZM21.5329 5.41176H21.8858V5.76471H21.5329V5.41176ZM21.5329 5.76471H21.8858V6.11765H21.5329V5.76471ZM21.5329 6.11765H21.8858V6.47059H21.5329V6.11765ZM21.1799 5.76471H21.5329V6.11765H21.1799V5.76471ZM21.1799 5.41176H21.5329V5.76471H21.1799V5.41176ZM21.1799 5.05882H21.5329V5.41176H21.1799V5.05882ZM20.827 5.41176H21.1799V5.76471H20.827V5.41176ZM20.827 5.76471H21.1799V6.11765H20.827V5.76471ZM21.1799 4.70588H21.5329V5.05882H21.1799V4.70588ZM21.1799 3.64706H21.5329V4H21.1799V3.64706ZM21.1799 4H21.5329V4.35294H21.1799V4ZM21.1799 4.35294H21.5329V4.70588H21.1799V4.35294ZM20.827 3.29412H21.1799V3.64706H20.827V3.29412ZM21.8858 9.64706H22.2387V10H21.8858V9.64706ZM21.8858 9.29412H22.2387V9.64706H21.8858V9.29412ZM21.8858 8.94118H22.2387V9.29412H21.8858V8.94118ZM21.8858 8.58824H22.2387V8.94118H21.8858V8.58824ZM22.2387 8.58824H22.5917V8.94118H22.2387V8.58824ZM22.5917 8.58824H22.9446V8.94118H22.5917V8.58824ZM22.9446 8.58824H23.2976V8.94118H22.9446V8.58824ZM23.2976 8.58824H23.6505V8.94118H23.2976V8.58824ZM23.2976 9.29412H23.6505V9.64706H23.2976V9.29412ZM22.9446 9.29412H23.2976V9.64706H22.9446V9.29412ZM22.5917 9.29412H22.9446V9.64706H22.5917V9.29412ZM22.2387 9.29412H22.5917V9.64706H22.2387V9.29412ZM22.2387 8.94118H22.5917V9.29412H22.2387V8.94118ZM22.5917 8.94118H22.9446V9.29412H22.5917V8.94118ZM22.9446 8.94118H23.2976V9.29412H22.9446V8.94118ZM23.2976 8.94118H23.6505V9.29412H23.2976V8.94118ZM23.2976 9.64706H23.6505V10H23.2976V9.64706ZM22.9446 9.64706H23.2976V10H22.9446V9.64706ZM22.5917 9.64706H22.9446V10H22.5917V9.64706ZM22.2387 9.64706H22.5917V10H22.2387V9.64706ZM21.8858 2.94118H22.2387V3.29412H21.8858V2.94118ZM22.2387 2.94118H22.5917V3.29412H22.2387V2.94118ZM22.5917 2.94118H22.9446V3.29412H22.5917V2.94118ZM22.9446 2.94118H23.2976V3.29412H22.9446V2.94118ZM23.2976 2.94118H23.6505V3.29412H23.2976V2.94118ZM23.2976 3.29412H23.6505V3.64706H23.2976V3.29412ZM23.2976 3.64706H23.6505V4H23.2976V3.64706ZM23.2976 4H23.6505V4.35294H23.2976V4ZM22.9446 4H23.2976V4.35294H22.9446V4ZM22.5917 4H22.9446V4.35294H22.5917V4ZM22.2387 4H22.5917V4.35294H22.2387V4ZM21.8858 4H22.2387V4.35294H21.8858V4ZM21.8858 3.64706H22.2387V4H21.8858V3.64706ZM21.8858 3.29412H22.2387V3.64706H21.8858V3.29412ZM22.2387 3.29412H22.5917V3.64706H22.2387V3.29412ZM22.5917 3.29412H22.9446V3.64706H22.5917V3.29412ZM22.9446 3.29412H23.2976V3.64706H22.9446V3.29412ZM22.9446 3.64706H23.2976V4H22.9446V3.64706ZM22.5917 3.64706H22.9446V4H22.5917V3.64706ZM22.2387 3.64706H22.5917V4H22.2387V3.64706ZM23.6505 2.94118H24.0034V3.29412H23.6505V2.94118ZM24.0034 2.94118H24.3564V3.29412H24.0034V2.94118ZM24.3564 2.94118H24.7093V3.29412H24.3564V2.94118ZM24.3564 3.29412H24.7093V3.64706H24.3564V3.29412ZM24.3564 3.64706H24.7093V4H24.3564V3.64706ZM24.3564 4H24.7093V4.35294H24.3564V4ZM24.0034 4H24.3564V4.35294H24.0034V4ZM23.6505 4H24.0034V4.35294H23.6505V4ZM23.6505 3.64706H24.0034V4H23.6505V3.64706ZM23.6505 3.29412H24.0034V3.64706H23.6505V3.29412ZM24.0034 3.29412H24.3564V3.64706H24.0034V3.29412ZM24.0034 3.64706H24.3564V4H24.0034V3.64706ZM23.6505 8.58824H24.0034V8.94118H23.6505V8.58824ZM24.0034 8.58824H24.3564V8.94118H24.0034V8.58824ZM24.3564 8.58824H24.7093V8.94118H24.3564V8.58824ZM24.3564 8.94118H24.7093V9.29412H24.3564V8.94118ZM24.3564 9.29412H24.7093V9.64706H24.3564V9.29412ZM24.3564 9.64706H24.7093V10H24.3564V9.64706ZM24.0034 9.64706H24.3564V10H24.0034V9.64706ZM23.6505 9.64706H24.0034V10H23.6505V9.64706ZM23.6505 9.29412H24.0034V9.64706H23.6505V9.29412ZM23.6505 8.94118H24.0034V9.29412H23.6505V8.94118ZM24.0034 8.94118H24.3564V9.29412H24.0034V8.94118ZM24.0034 9.29412H24.3564V9.64706H24.0034V9.29412ZM21.8858 6.11765H22.2387V6.47059H21.8858V6.11765ZM21.8858 5.76471H22.2387V6.11765H21.8858V5.76471ZM21.8858 6.47059H22.2387V6.82353H21.8858V6.47059ZM21.8858 6.82353H22.2387V7.17647H21.8858V6.82353ZM22.2387 6.82353H22.5917V7.17647H22.2387V6.82353ZM22.5917 6.82353H22.9446V7.17647H22.5917V6.82353ZM22.9446 6.82353H23.2976V7.17647H22.9446V6.82353ZM23.2976 6.82353H23.6505V7.17647H23.2976V6.82353ZM23.2976 6.47059H23.6505V6.82353H23.2976V6.47059ZM23.2976 6.11765H23.6505V6.47059H23.2976V6.11765ZM23.2976 5.76471H23.6505V6.11765H23.2976V5.76471ZM22.9446 5.76471H23.2976V6.11765H22.9446V5.76471ZM22.5917 5.76471H22.9446V6.11765H22.5917V5.76471ZM22.2387 5.76471H22.5917V6.11765H22.2387V5.76471ZM22.2387 6.11765H22.5917V6.47059H22.2387V6.11765ZM22.2387 6.47059H22.5917V6.82353H22.2387V6.47059ZM22.5917 6.47059H22.9446V6.82353H22.5917V6.47059ZM22.9446 6.47059H23.2976V6.82353H22.9446V6.47059ZM22.9446 6.11765H23.2976V6.47059H22.9446V6.11765ZM22.5917 6.11765H22.9446V6.47059H22.5917V6.11765ZM23.6505 5.76471H24.0034V6.11765H23.6505V5.76471ZM23.6505 6.11765H24.0034V6.47059H23.6505V6.11765ZM23.6505 6.47059H24.0034V6.82353H23.6505V6.47059ZM23.6505 6.82353H24.0034V7.17647H23.6505V6.82353Z" fill="#E50914"/>
</svg>
